{"title":"All Is Lost 2013.1080p.BluRay.x264 . NVEE","uid":9651648,"size":2347511774,"categoryP":"video","categoryS":"hd___movies","magnet":"?xt=urn:btih:82fc5b27e47b67d344efc99d8f0a9998c92a7956&amp;dn=All+Is+Lost+2013.1080p.BluRay.x264+.+NVEE&amp;tr=udp%3A%2F%2Ftracker.openbittorrent.com%3A80&amp;tr=udp%3A%2F%2Fopen.demonii.com%3A1337&amp;tr=udp%3A%2F%2Ftracker.coppersurfer.tk%3A6969&amp;tr=udp%3A%2F%2Fexodus.desync.com%3A6969","seeders":1,"leechers":0,"uploader":".NVEE","files":-1,"time":1393087704,"description":"FULL_INFOs\n\n\nSource : Blu-ray ~ 1080p\n\nSpoken Language : English\n\nAudio : 6 ~ Channels Only\n\nAll .srt &amp; .idx subs can be turned On/Off\n_____________________________________\n\n\n &lt;a href=&quot;\nhttp://www.imdb.com/title/tt2017038/&quot; rel=&quot;nofollow&quot; target=&quot;_NEW&quot;&gt;\nhttp://www.imdb.com/title/tt2017038/&lt;/a&gt;\n\n\n\n---------------------------------------------------------------------------------\n\n\nGeneral Metadata\n\nComplete name : All Is Lost 2013.1080p.BluRay.x264 . NVEE.mp4\nFormat : MPEG-4\nFormat profile : Base Media\nCodec ID : isom\nFile size : 2.19 GiB\nDuration : 1h 45mn\nOverall bit rate : 2 960 Kbps\nEncoded date : UTC 2014-02-19 09:45:24\nTagged date : UTC 2014-02-19 09:45:24\n\n\nVideo\n\nID : 1\nFormat : AVC\nFormat/Info : Advanced Video Codec\nFormat profile : &lt;a class=&quot;__cf_email__&quot; href=&quot;/cdn-cgi/l/email-protection&quot; data-cfemail=&quot;7c34151b143c3048524c&quot;&gt;[email&amp;#160;protected]&lt;/a&gt;&lt;script cf-hash='f9e31' type=&quot;text/javascript&quot;&gt;\n/* &lt;![CDATA[ */!function(){try{var t=&quot;currentScript&quot;in document?document.currentScript:function(){for(var t=document.getElementsByTagName(&quot;script&quot;),e=t.length;e--;)if(t[e].getAttribute(&quot;cf-hash&quot;))return t[e]}();if(t&amp;&amp;t.previousSibling){var e,r,n,i,c=t.previousSibling,a=c.getAttribute(&quot;data-cfemail&quot;);if(a){for(e=&quot;&quot;,r=parseInt(a.substr(0,2),16),n=2;a.length-n;n+=2)i=parseInt(a.substr(n,2),16)^r,e+=String.fromCharCode(i);e=document.createTextNode(e),c.parentNode.replaceChild(e,c)}}}catch(u){}}();/* ]]&gt; */&lt;/script&gt;\nFormat settings, CABAC : Yes\nFormat settings, ReFrames : 3 frames\nCodec ID : avc1\nCodec ID/Info : Advanced Video Coding\nDuration : 1h 45mn\nBit rate : 2 447 Kbps\nMaximum bit rate : 14.7 Mbps\nWidth : 1 920 pixels\nHeight : 800 pixels\nDisplay aspect ratio : 2.40:1\nFrame rate mode : Constant\nFrame rate : 23.976 fps\nColor space : YUV\nChroma subsampling : 4:2:0\nBit depth : 8 bits\nScan type : Progressive\nBits/(Pixel*Frame) : 0.066\nStream size : 1.81 GiB (83%)\nWriting library : x264 core 138 r2358 9e941d1\n\n\nAudio\n\nID : 2\nFormat : AC-3\nFormat/Info : Audio Coding 3\nMode extension : CM (complete main)\nFormat settings, Endianness : Big\nCodec ID : ac-3\nDuration : 1h 45mn\nBit rate mode : Constant\nBit rate : 512 Kbps\nChannel(s) : 6 channels\nChannel positions : Front: L C R, Side: L R, LFE\nSampling rate : 48.0 KHz\nBit depth : 16 bits\nCompression mode : Lossy\nStream size : 387 MiB (17%)\nLanguage : English\nEncoded date : UTC 2014-02-19 09:56:18\nTagged date : UTC 2014-02-19 09:57:54\n\n\nSynopsis\n\nSomewhere in the Indian Ocean (&quot;1700 nautical miles from the Sumatra Straits&quot;), the unnamed character (Robert Redford) narrates, &quot;I'm sorry. I know that means little at this point, but I am. I tried. I think you would all agree that I tried. To be true, to be strong, to be kind, to love, to be right, but I wasn't.&quot; He declares, &quot;All is lost.&quot;\nEight days earlier, he wakes up and sees that water has partially flooded his boat, the Virginia Jean, a Cal 39. He goes out onto the deck and sees that his boat has collided with a wayward shipping container which has ripped a hole in the hull.\n\nEnj0y !","torrent":{"xt":"urn:btih:82fc5b27e47b67d344efc99d8f0a9998c92a7956","amp;dn":"All+Is+Lost+2013.1080p.BluRay.x264+.+NVEE","amp;tr":["udp%3A%2F%2Ftracker.openbittorrent.com%3A80","udp%3A%2F%2Fopen.demonii.com%3A1337","udp%3A%2F%2Ftracker.coppersurfer.tk%3A6969","udp%3A%2F%2Fexodus.desync.com%3A6969"],"infoHash":"82fc5b27e47b67d344efc99d8f0a9998c92a7956","infoHashBuffer":{"type":"Buffer","data":[130,252,91,39,228,123,103,211,68,239,201,157,143,10,153,152,201,42,121,86]},"announce":[],"urlList":[]}}